<?xml version="1.0" standalone="no"?>
<!DOCTYPE svg PUBLIC "-//W3C//DTD SVG 20010904//EN"
 "http://www.w3.org/TR/2001/REC-SVG-20010904/DTD/svg10.dtd">
<svg version="1.0" xmlns="http://www.w3.org/2000/svg"
 width="54.000000pt" height="8.000000pt" viewBox="0 0 54.000000 8.000000"
 preserveAspectRatio="xMidYMid meet">
<metadata>
Created by potrace 1.13, written by Peter Selinger 2001-2015
</metadata>
<g transform="translate(0.000000,8.000000) scale(0.100000,-0.100000)"
fill="#000000" stroke="none">
<path d="M21 51 c-12 -16 -21 -33 -21 -38 0 -4 5 -1 10 7 8 13 13 13 38 -2 26
-16 31 -16 42 -3 16 19 29 19 50 0 15 -14 19 -13 35 5 l18 20 24 -22 c24 -23
25 -23 39 -3 14 18 16 18 43 2 25 -15 30 -15 41 -2 16 19 29 19 50 0 15 -14
19 -13 35 5 l18 20 24 -22 24 -22 24 29 c30 36 32 49 6 33 -16 -10 -23 -9 -39
5 -17 16 -21 16 -32 2 -16 -19 -29 -19 -52 2 -18 16 -19 15 -34 -6 l-16 -22
-24 22 c-22 21 -25 21 -42 6 -23 -21 -31 -21 -52 -2 -15 14 -18 14 -30 0 -16
-19 -34 -19 -50 0 -12 14 -15 13 -35 -5 l-22 -20 -18 20 c-24 26 -30 25 -54
-9z"/>
</g>
</svg>
